<?xml version="1.0" encoding="utf-8"?>
<!-- Generator: Adobe Illustrator 19.1.0, SVG Export Plug-In . SVG Version: 6.00 Build 0)  -->
<svg version="1.1" id="Layer_1" xmlns="http://www.w3.org/2000/svg" xmlns:xlink="http://www.w3.org/1999/xlink" x="0px" y="0px"
	 viewBox="0 0 260 80" style="enable-background:new 0 0 260 80;" xml:space="preserve">
<style type="text/css">
	.st0{fill:#283593;}
	.st1{fill:none;}
</style>
<g>
	<path class="st0" d="M33,55.7H17.9l-3,10.5H4.6l16.5-50.5H30l16.2,50.5H36L33,55.7z M20.3,47.4h10.5l-5.2-18.6L20.3,47.4z"/>
	<path class="st0" d="M85,47.9c0,2.8-0.3,5.4-0.9,7.7c-0.6,2.3-1.5,4.3-2.8,6c-1.2,1.7-2.8,3-4.6,3.9s-4,1.4-6.4,1.4
		c-2.2,0-4.1-0.4-5.7-1.2c-1.6-0.8-3-2-4.1-3.5l-0.5,4h-8.7V13H61v19.1c1.1-1.3,2.4-2.3,3.9-3c1.5-0.7,3.3-1.1,5.3-1.1
		c2.5,0,4.6,0.5,6.4,1.4c1.8,0.9,3.4,2.3,4.6,4c1.2,1.7,2.1,3.7,2.8,6.1c0.6,2.3,0.9,4.9,0.9,7.7V47.9z M75.3,47.2
		c0-1.5-0.1-3-0.3-4.3c-0.2-1.4-0.6-2.6-1.2-3.6c-0.6-1-1.3-1.8-2.3-2.4c-1-0.6-2.2-0.9-3.6-0.9c-1.8,0-3.2,0.4-4.3,1.1
		c-1.1,0.7-1.9,1.8-2.5,3.1V55c0.6,1.3,1.5,2.3,2.5,3.1c1.1,0.7,2.5,1.1,4.4,1.1c1.5,0,2.7-0.3,3.6-0.8s1.7-1.4,2.3-2.4
		c0.6-1,1-2.2,1.2-3.6c0.2-1.4,0.3-2.9,0.3-4.5V47.2z"/>
	<path class="st0" d="M118,56c0-0.6-0.1-1.1-0.4-1.5c-0.3-0.4-0.7-0.8-1.4-1.2c-0.7-0.4-1.6-0.7-2.7-1.1c-1.1-0.3-2.6-0.6-4.3-1
		c-2.2-0.4-4.2-1-6-1.6c-1.8-0.7-3.4-1.5-4.7-2.4c-1.3-0.9-2.3-2-3-3.2c-0.7-1.2-1.1-2.6-1.1-4.2c0-1.5,0.4-3,1.1-4.4
		s1.8-2.6,3.2-3.7s3.1-1.9,5.1-2.5c2-0.6,4.2-0.9,6.7-0.9c2.6,0,5,0.3,7,0.9c2.1,0.6,3.8,1.5,5.3,2.5s2.5,2.4,3.3,3.8
		c0.8,1.5,1.1,3.1,1.1,4.8h-9.6c0-1.5-0.6-2.7-1.8-3.7c-1.2-1-3-1.5-5.4-1.5c-2.2,0-3.9,0.4-5.1,1.2c-1.1,0.8-1.7,1.8-1.7,3
		c0,0.6,0.1,1.1,0.3,1.5c0.2,0.5,0.6,0.9,1.2,1.3c0.6,0.4,1.4,0.7,2.4,1c1,0.3,2.3,0.6,3.9,0.8c2.3,0.4,4.4,0.8,6.3,1.4
		c1.9,0.6,3.6,1.3,5,2.2c1.4,0.9,2.5,2,3.3,3.3c0.8,1.3,1.2,2.9,1.2,4.7c0,1.7-0.4,3.2-1.2,4.6c-0.8,1.4-1.9,2.6-3.4,3.6
		c-1.5,1-3.2,1.8-5.3,2.4s-4.4,0.8-7,0.8c-2.8,0-5.3-0.4-7.5-1.1c-2.2-0.7-4-1.7-5.4-2.9c-1.5-1.2-2.6-2.5-3.3-4.1
		c-0.8-1.5-1.1-3-1.1-4.6h9.2c0.1,1,0.3,1.9,0.8,2.6c0.5,0.7,1.1,1.3,1.9,1.8c0.8,0.5,1.6,0.8,2.6,1s2,0.3,3,0.3
		c2.4,0,4.2-0.4,5.4-1.1C117.4,58.2,118,57.2,118,56z"/>
	<path class="st0" d="M154.6,67c-2.9,0-5.5-0.5-7.9-1.4c-2.4-0.9-4.4-2.2-6.1-3.9s-3-3.5-3.9-5.8c-0.9-2.2-1.4-4.6-1.4-7.1v-1.4
		c0-2.9,0.5-5.5,1.4-7.9c0.9-2.4,2.2-4.4,3.8-6.1s3.5-3,5.8-4c2.2-0.9,4.6-1.4,7.2-1.4c2.7,0,5.1,0.4,7.2,1.3
		c2.1,0.9,3.9,2.1,5.4,3.8c1.5,1.6,2.6,3.6,3.3,5.8c0.8,2.3,1.1,4.8,1.1,7.5v4.1h-25.5c0.2,1.3,0.6,2.4,1.1,3.5
		c0.6,1.1,1.3,2,2.2,2.7c0.9,0.8,1.9,1.4,3,1.8c1.1,0.4,2.4,0.6,3.7,0.6c0.9,0,1.9-0.1,2.8-0.3c0.9-0.2,1.8-0.5,2.7-0.8
		s1.7-0.8,2.4-1.3c0.7-0.5,1.4-1.2,1.9-1.9l4.8,5.2c-0.6,0.9-1.4,1.7-2.3,2.5c-1,0.8-2.1,1.5-3.4,2.2c-1.3,0.6-2.8,1.2-4.4,1.5
		C158.2,66.8,156.5,67,154.6,67z M153.5,35.9c-1.1,0-2.1,0.2-3,0.6c-0.9,0.4-1.7,0.9-2.4,1.6c-0.7,0.7-1.3,1.6-1.7,2.6
		c-0.5,1-0.8,2.1-1,3.3h15.8v-0.8c0-1-0.2-2-0.6-2.9c-0.3-0.9-0.8-1.7-1.5-2.3c-0.6-0.7-1.4-1.2-2.4-1.6
		C155.8,36,154.7,35.9,153.5,35.9z"/>
	<path class="st0" d="M181.6,28.7H202v29.7h10.2v7.8h-30.6v-7.8h10.7V36.6h-10.7V28.7z M191.6,19.1c0-0.7,0.1-1.4,0.4-2.1
		c0.3-0.6,0.6-1.2,1.1-1.6c0.5-0.5,1.1-0.8,1.8-1.1c0.7-0.3,1.4-0.4,2.3-0.4c1.7,0,3.1,0.5,4.1,1.4c1,1,1.5,2.2,1.5,3.7
		c0,1.5-0.5,2.7-1.5,3.7c-1,1-2.4,1.4-4.1,1.4c-0.8,0-1.6-0.1-2.3-0.4c-0.7-0.3-1.3-0.6-1.8-1.1c-0.5-0.5-0.9-1-1.1-1.6
		S191.6,19.9,191.6,19.1z"/>
	<path class="st0" d="M223.6,13h21v45.4h10.8v7.8h-31.7v-7.8h11.2V20.9h-11.2V13z"/>
</g>
<rect x="0" y="0" class="st1" width="260" height="80"/>
</svg>
